<svg width="1024" height="1024" viewBox="0 0 1024 1024" fill="none" xmlns="http://www.w3.org/2000/svg">
<path d="M672 568.75C680.5 569.917 689.667 570.917 699.5 571.75C708 572.583 717.667 573.25 728.5 573.75C739.5 574.25 751.083 574.5 763.25 574.5C779.417 574.5 792.25 573.5 801.75 571.5C811.25 569.333 818.5 566.25 823.5 562.25C828.5 558.083 831.667 553 833 547C834.5 541 835.25 534.083 835.25 526.25C835.25 520.083 834.917 514.5 834.25 509.5C833.75 504.333 832.417 499.75 830.25 495.75C828.083 491.75 825 488.333 821 485.5C817 482.5 811.5 480.083 804.5 478.25L731.75 459.25C720.25 456.25 710.5 452.25 702.5 447.25C694.5 442.083 688 435.583 683 427.75C678.167 419.917 674.583 410.5 672.25 399.5C670.083 388.333 669 375.25 669 360.25C669 342.583 671.667 327.333 677 314.5C682.333 301.5 689.833 290.833 699.5 282.5C709.333 274.167 721.167 268 735 264C748.833 260 764.25 258 781.25 258C795.417 258 808.333 258.833 820 260.5C831.833 262 842 263.667 850.5 265.5C860.5 267.667 869.583 270.083 877.75 272.75V319C870.25 318 862.333 317.083 854 316.25C846.833 315.417 838.75 314.75 829.75 314.25C820.917 313.583 811.75 313.25 802.25 313.25C787.417 313.25 775.25 313.75 765.75 314.75C756.25 315.75 748.75 317.833 743.25 321C737.75 324.167 733.917 328.667 731.75 334.5C729.583 340.333 728.5 348.083 728.5 357.75C728.5 363.083 728.75 367.833 729.25 372C729.917 376.167 731.25 379.833 733.25 383C735.417 386.167 738.417 388.917 742.25 391.25C746.25 393.583 751.583 395.75 758.25 397.75L826 417.25C834.667 419.75 842.333 422.417 849 425.25C855.833 427.917 861.75 431.167 866.75 435C871.75 438.667 876 443 879.5 448C883.167 453 886.083 459 888.25 466C890.417 472.833 892 480.917 893 490.25C894 499.583 894.5 510.333 894.5 522.5C894.5 541.5 892.833 557.833 889.5 571.5C886.333 585 880.25 596.083 871.25 604.75C862.25 613.25 849.833 619.5 834 623.5C818.333 627.667 798 629.75 773 629.75C753.667 629.75 737.583 628.833 724.75 627C712.083 625.333 701.75 623.417 693.75 621.25C684.583 618.75 677.333 615.917 672 612.75V568.75Z" fill="white" fill-opacity="0.38" style="fill:white;fill-opacity:0.38;"/>
<path d="M127.5 410.25H187.5V711.25H335V767H127.5V410.25Z" fill="white" fill-opacity="0.38" style="fill:white;fill-opacity:0.38;"/>
<path d="M853.48 706.591C858.501 701.08 858.103 692.541 852.591 687.52C847.08 682.499 838.541 682.897 833.52 688.409L843.5 697.5L853.48 706.591ZM367.5 803L467.824 922.31L520.988 775.772L367.5 803ZM815.61 707.509C810.428 712.869 810.573 721.416 815.934 726.598C821.295 731.78 829.841 731.635 835.023 726.274L825.317 716.892L815.61 707.509ZM796.159 763.699C801.732 758.746 802.234 750.213 797.28 744.64C792.327 739.068 783.794 738.566 778.221 743.519L787.19 753.609L796.159 763.699ZM738.014 775.824C731.951 780.164 730.554 788.597 734.893 794.66C739.232 800.722 747.665 802.12 753.728 797.78L745.871 786.802L738.014 775.824ZM706.979 826.629C713.598 823.198 716.183 815.05 712.751 808.431C709.32 801.811 701.172 799.227 694.553 802.658L700.766 814.643L706.979 826.629ZM647.864 821.944C640.742 824.151 636.757 831.713 638.963 838.835C641.169 845.956 648.731 849.941 655.853 847.735L651.858 834.84L647.864 821.944ZM601.529 859.036C608.939 858.212 614.278 851.537 613.454 844.127C612.63 836.717 605.955 831.378 598.545 832.202L600.037 845.619L601.529 859.036ZM547.883 833.411C540.44 832.987 534.062 838.677 533.638 846.121C533.214 853.565 538.905 859.943 546.348 860.367L547.116 846.889L547.883 833.411ZM492.074 853.593C499.403 854.963 506.454 850.132 507.824 842.803C509.194 835.474 504.364 828.422 497.035 827.053L494.554 840.323L492.074 853.593ZM446.641 815.11C439.465 813.086 432.007 817.263 429.984 824.439C427.96 831.614 432.137 839.072 439.313 841.096L442.977 828.103L446.641 815.11ZM388.028 824.807C395.066 827.267 402.766 823.556 405.226 816.518C407.686 809.48 403.975 801.78 396.936 799.319L392.482 812.063L388.028 824.807ZM843.5 697.5L833.52 688.409C827.493 695.025 821.525 701.39 815.61 707.509L825.317 716.892L835.023 726.274C841.134 719.953 847.283 713.393 853.48 706.591L843.5 697.5ZM787.19 753.609L778.221 743.519C764.625 755.605 751.255 766.348 738.014 775.824L745.871 786.802L753.728 797.78C767.824 787.691 781.935 776.343 796.159 763.699L787.19 753.609ZM700.766 814.643L694.553 802.658C679.033 810.703 663.526 817.092 647.864 821.944L651.858 834.84L655.853 847.735C673.12 842.386 690.108 835.374 706.979 826.629L700.766 814.643ZM600.037 845.619L598.545 832.202C582.163 834.024 565.337 834.404 547.883 833.411L547.116 846.889L546.348 860.367C565.185 861.439 583.527 861.038 601.529 859.036L600.037 845.619ZM494.554 840.323L497.035 827.053C480.861 824.029 464.102 820.034 446.641 815.11L442.977 828.103L439.313 841.096C457.44 846.208 474.994 850.4 492.074 853.593L494.554 840.323Z" fill="#F4F4F4" fill-opacity="0.27" style="fill:#F4F4F4;fill:color(display-p3 0.9556 0.9556 0.9556);fill-opacity:0.27;"/>
<path d="M194.878 317.029C189.857 322.54 190.254 331.079 195.766 336.1C201.278 341.121 209.816 340.723 214.837 335.211L204.857 326.12L194.878 317.029ZM680.857 220.62L580.533 101.31L527.369 247.848L680.857 220.62ZM232.747 316.111C237.929 310.751 237.784 302.204 232.423 297.022C227.063 291.84 218.516 291.985 213.334 297.346L223.04 306.729L232.747 316.111ZM252.198 259.921C246.625 264.874 246.123 273.407 251.077 278.98C256.03 284.553 264.563 285.055 270.136 280.101L261.167 270.011L252.198 259.921ZM310.343 247.796C316.406 243.456 317.804 235.024 313.464 228.961C309.125 222.898 300.692 221.5 294.629 225.84L302.486 236.818L310.343 247.796ZM341.378 196.991C334.759 200.423 332.175 208.57 335.606 215.19C339.037 221.809 347.185 224.393 353.804 220.962L347.591 208.977L341.378 196.991ZM400.494 201.676C407.616 199.47 411.601 191.908 409.394 184.786C407.188 177.664 399.626 173.679 392.504 175.885L396.499 188.78L400.494 201.676ZM446.828 164.584C439.418 165.408 434.079 172.083 434.903 179.493C435.727 186.903 442.402 192.242 449.812 191.418L448.32 178.001L446.828 164.584ZM500.474 190.21C507.918 190.634 514.296 184.943 514.719 177.499C515.143 170.055 509.453 163.677 502.009 163.253L501.241 176.731L500.474 190.21ZM556.283 170.027C548.954 168.657 541.903 173.488 540.533 180.817C539.163 188.146 543.994 195.198 551.323 196.568L553.803 183.298L556.283 170.027ZM601.716 208.51C608.892 210.534 616.35 206.358 618.373 199.182C620.397 192.006 616.221 184.548 609.045 182.524L605.38 195.517L601.716 208.51ZM660.33 198.813C653.291 196.353 645.591 200.064 643.131 207.102C640.671 214.141 644.382 221.841 651.421 224.301L655.875 211.557L660.33 198.813ZM204.857 326.12L214.837 335.211C220.864 328.595 226.832 322.23 232.747 316.111L223.04 306.729L213.334 297.346C207.223 303.667 201.074 310.227 194.878 317.029L204.857 326.12ZM261.167 270.011L270.136 280.101C283.732 268.016 297.102 257.272 310.343 247.796L302.486 236.818L294.629 225.84C280.533 235.929 266.422 247.277 252.198 259.921L261.167 270.011ZM347.591 208.977L353.804 220.962C369.324 212.917 384.831 206.528 400.494 201.676L396.499 188.78L392.504 175.885C375.237 181.234 358.249 188.246 341.378 196.991L347.591 208.977ZM448.32 178.001L449.812 191.418C466.195 189.597 483.02 189.216 500.474 190.21L501.241 176.731L502.009 163.253C483.173 162.181 464.83 162.582 446.828 164.584L448.32 178.001ZM553.803 183.298L551.323 196.568C567.496 199.591 584.255 203.586 601.716 208.51L605.38 195.517L609.045 182.524C590.918 177.412 573.363 173.22 556.283 170.027L553.803 183.298Z" fill="#F4F4F4" fill-opacity="0.27" style="fill:#F4F4F4;fill:color(display-p3 0.9556 0.9556 0.9556);fill-opacity:0.27;"/>
</svg>
